<?xml version="1.0" standalone="no"?>
<!DOCTYPE svg PUBLIC "-//W3C//DTD SVG 20010904//EN"
 "http://www.w3.org/TR/2001/REC-SVG-20010904/DTD/svg10.dtd">
<svg version="1.0" xmlns="http://www.w3.org/2000/svg"
 width="500.000000pt" height="500.000000pt" viewBox="0 0 500.000000 500.000000"
 preserveAspectRatio="xMidYMid meet">

<g transform="translate(0.000000,500.000000) scale(0.100000,-0.100000)"
fill="#000000" stroke="none">
<path d="M2799 3586 c-70 -28 -104 -52 -158 -111 -54 -59 -81 -117 -81 -178 0
-42 5 -54 34 -83 37 -37 77 -44 146 -24 29 8 37 7 55 -10 27 -25 55 -25 88 0
l26 20 6 -21 c8 -25 68 -52 95 -44 11 3 33 -1 49 -9 17 -9 50 -16 73 -16 25 0
61 -9 83 -21 30 -15 51 -19 87 -15 43 4 50 2 77 -25 16 -16 40 -29 53 -29 33
1 96 25 119 46 25 23 25 69 -2 87 -20 15 -20 15 15 42 27 21 44 26 68 23 62
-10 102 28 78 72 -6 11 -8 25 -5 30 12 19 -6 48 -35 58 -22 8 -36 7 -62 -7
-21 -12 -40 -15 -53 -11 -21 8 -63 3 -80 -10 -5 -5 -46 -10 -90 -11 -73 -3
-83 -1 -104 20 -21 21 -30 23 -87 18 -60 -4 -66 -3 -94 23 l-31 29 46 51 c48
54 55 79 29 104 -25 26 -61 19 -104 -20 -27 -24 -40 -31 -40 -21 0 8 -14 27
-31 41 -39 33 -94 34 -170 2z m-23 -181 c3 -8 14 -17 25 -20 11 -4 17 -11 13
-16 -7 -12 -68 -50 -106 -67 -25 -10 -28 -9 -28 7 0 21 66 111 81 111 5 0 12
-7 15 -15z"/>
<path d="M2494 3590 c-12 -5 -28 -17 -35 -27 -8 -10 -32 -24 -54 -31 -25 -7
-50 -24 -63 -42 -13 -16 -29 -30 -38 -30 -8 0 -31 -8 -52 -19 -31 -16 -39 -17
-50 -5 -18 19 -61 17 -104 -5 -36 -18 -38 -18 -54 0 -23 25 -60 24 -88 -3 -13
-13 -33 -24 -46 -26 -13 -1 -31 -9 -39 -17 -12 -10 -21 -11 -34 -3 -29 16 -63
1 -97 -42 -27 -35 -34 -38 -56 -30 -14 6 -51 10 -82 10 l-56 0 34 35 c23 24
40 33 54 30 12 -3 43 7 71 22 44 25 50 32 53 65 2 28 -2 40 -20 52 -43 30
-111 12 -210 -57 -128 -88 -164 -218 -74 -261 19 -9 60 -16 93 -16 55 -1 57
-2 38 -16 -41 -33 -83 -45 -105 -32 -24 15 -48 4 -68 -33 -20 -35 -1 -76 42
-94 31 -13 41 -13 98 5 35 11 86 37 115 59 44 34 53 37 64 25 16 -20 62 -18
90 5 17 13 33 17 61 13 33 -4 42 0 72 30 l35 35 20 -20 c25 -25 93 -27 137 -4
24 13 39 14 67 6 26 -7 46 -6 79 5 33 12 51 13 79 5 40 -13 73 -1 122 45 44
41 36 107 -15 117 -16 4 -15 8 8 47 20 34 31 42 55 42 30 0 69 30 69 54 0 7
-9 25 -20 39 -11 14 -20 32 -20 41 0 13 -41 40 -53 35 -1 0 -12 -4 -23 -9z"/>
<path d="M1286 2799 c-20 -44 -87 -99 -120 -99 -15 0 -6 -9 29 -28 48 -26 64
-46 86 -107 11 -30 11 -30 20 -6 18 47 53 84 97 103 l45 20 -30 13 c-33 14
-74 62 -95 112 l-13 32 -19 -40z"/>
<path d="M1594 2776 c-3 -8 -15 -18 -25 -21 -19 -6 -19 -8 6 -31 26 -24 27
-24 49 -6 l23 18 -23 28 c-19 22 -25 24 -30 12z"/>
<path d="M2127 2728 c-13 -31 -14 -32 -21 -10 -9 26 -21 29 -30 6 -6 -16 -8
-16 -24 0 -28 24 -45 21 -38 -8 5 -21 3 -23 -16 -19 -18 5 -20 3 -16 -22 5
-22 -2 -35 -33 -68 -60 -62 -64 -106 -12 -129 15 -7 39 -20 52 -31 21 -15 36
-17 95 -11 106 9 142 21 171 56 22 26 25 39 23 82 -3 42 -7 53 -28 63 -14 7
-24 18 -22 23 5 20 -19 50 -38 50 -15 0 -20 7 -20 25 0 36 -27 31 -43 -7z"/>
<path d="M2533 2740 c-44 -26 -61 -84 -44 -142 13 -43 85 -158 100 -158 4 0
20 13 35 29 15 15 45 37 67 47 38 18 39 20 33 59 -3 22 -16 64 -29 93 -20 43
-32 56 -67 72 -53 24 -56 24 -95 0z m12 -87 c0 -27 4 -59 8 -73 l9 -25 -17 24
c-18 23 -24 89 -11 110 11 17 11 15 11 -36z"/>
<path d="M3020 2718 c-11 -32 -12 -32 -21 -10 -10 26 -24 29 -33 6 -6 -16 -8
-16 -24 0 -28 24 -43 20 -36 -9 5 -20 3 -24 -9 -19 -21 8 -30 -12 -17 -36 6
-11 7 -20 1 -20 -15 0 -79 -72 -86 -97 -6 -27 10 -63 28 -63 7 0 29 -11 48
-25 32 -24 39 -26 114 -19 106 8 156 31 179 78 22 47 12 106 -21 121 -13 5
-23 20 -25 35 -2 15 -12 29 -26 35 -13 6 -25 20 -29 33 -8 32 -29 27 -43 -10z"/>
<path d="M1502 2570 c-7 -11 -26 -29 -43 -39 l-30 -19 26 -6 c18 -5 31 -19 41
-43 l16 -36 11 24 c7 13 27 33 44 45 29 19 31 22 13 27 -11 3 -28 19 -37 36
-21 37 -24 37 -41 11z"/>
<path d="M3809 2540 c-53 -28 -116 -103 -198 -234 -39 -63 -87 -133 -105 -155
-30 -36 -34 -49 -46 -148 -14 -121 -34 -170 -83 -207 -52 -40 -142 -77 -215
-89 -37 -6 -68 -12 -70 -13 -2 -1 -10 -46 -18 -100 -8 -54 -23 -112 -32 -129
-28 -47 -96 -92 -185 -121 -74 -25 -96 -28 -237 -28 -123 -1 -167 3 -215 17
-179 56 -245 134 -245 292 l0 72 -92 7 c-221 15 -380 93 -403 195 l-7 31 -30
-16 c-56 -29 -117 -15 -211 49 -123 84 -172 95 -234 57 -27 -16 -33 -26 -33
-56 0 -19 5 -44 10 -55 13 -24 74 -55 125 -64 86 -15 174 -47 231 -83 70 -46
156 -137 189 -201 12 -25 34 -56 47 -67 62 -57 303 -148 508 -192 115 -24 143
-26 360 -26 258 0 335 11 539 76 218 69 267 99 301 185 71 179 162 263 312
287 47 8 99 21 115 30 58 30 64 103 11 140 -32 23 -57 20 -108 -14 -51 -34
-72 -37 -91 -14 -32 39 74 219 208 351 89 87 99 104 94 153 -8 76 -110 113
-192 70z m50 -45 c-26 -13 -72 -53 -103 -87 -47 -52 -53 -56 -35 -25 30 53 76
97 124 118 58 27 68 22 14 -6z m-193 -231 c-4 -9 -9 -15 -11 -12 -3 3 -3 13 1
22 4 9 9 15 11 12 3 -3 3 -13 -1 -22z m-2385 -360 c20 -7 26 -13 16 -13 -32
-2 -84 29 -96 55 -18 40 -13 41 17 4 16 -19 44 -39 63 -46z m2594 56 c7 -12
-2 -12 -30 0 -19 8 -19 9 2 9 12 1 25 -3 28 -9z m-2140 -317 c27 -56 13 -46
-33 25 -38 59 -39 63 -13 38 17 -16 37 -44 46 -63z"/>
<path d="M2647 2365 c-9 -9 -17 -24 -17 -33 0 -13 -2 -13 -15 4 -15 19 -15 19
-31 -1 -14 -19 -16 -19 -25 -2 -6 9 -17 17 -26 17 -12 0 -14 -7 -10 -32 3 -18
3 -27 0 -20 -2 6 -12 12 -20 12 -12 0 -14 -8 -10 -35 3 -19 2 -35 -3 -35 -15
0 -70 -63 -76 -87 -7 -28 4 -63 20 -63 7 0 30 -11 50 -25 45 -30 134 -34 212
-9 68 22 94 55 94 121 0 45 -4 55 -24 69 -14 8 -26 25 -28 37 -2 12 -13 26
-25 32 -13 5 -23 15 -23 20 0 6 -6 19 -13 29 -13 17 -14 17 -30 1z"/>
<path d="M3480 2328 c0 -18 4 -39 9 -47 13 -20 34 24 27 55 -10 37 -36 31 -36
-8z"/>
<path d="M1354 2271 c-70 -32 -67 -70 8 -114 49 -28 113 -87 146 -132 l21 -30
1 27 c0 41 -20 179 -31 216 -17 53 -73 66 -145 33z"/>
<path d="M1638 2120 c-2 -22 0 -47 4 -57 4 -10 7 6 7 40 1 66 -5 76 -11 17z"/>
</g>
</svg>
