<?xml version="1.0" standalone="no"?>
<!DOCTYPE svg PUBLIC "-//W3C//DTD SVG 20010904//EN"
 "http://www.w3.org/TR/2001/REC-SVG-20010904/DTD/svg10.dtd">
<svg version="1.0" xmlns="http://www.w3.org/2000/svg"
 width="499.000000pt" height="205.000000pt" viewBox="0 0 499.000000 205.000000"
 preserveAspectRatio="xMidYMid meet">

<g transform="translate(0.000000,205.000000) scale(0.100000,-0.100000)"
fill="#ffffff" stroke="#ffffff" stroke-width="20">
<path d="M1310 1994 c-290 -34 -540 -100 -738 -194 -297 -142 -478 -329 -477
-495 2 -167 134 -290 621 -579 128 -76 247 -150 265 -165 l33 -28 -70 -38
c-167 -93 -223 -164 -194 -249 24 -73 113 -105 236 -87 148 22 224 75 224 154
0 47 -28 114 -67 165 -17 23 -22 37 -15 44 10 10 141 43 197 50 26 3 30 -1 41
-38 26 -88 50 -104 108 -73 l35 18 30 -29 c22 -22 39 -30 66 -30 54 0 90 40
106 119 11 57 14 62 33 56 12 -4 38 -9 59 -12 31 -4 37 -9 37 -30 0 -37 27
-81 62 -99 63 -33 188 -1 285 72 l32 25 15 -34 c7 -19 26 -43 41 -55 55 -44
177 -20 287 56 26 18 49 32 51 32 2 0 7 -18 11 -41 15 -94 97 -118 177 -51 43
35 116 112 107 112 -3 0 -24 -18 -49 -40 -99 -90 -171 -99 -185 -24 -9 49 5
306 17 319 6 6 63 11 127 13 167 4 171 16 7 22 l-140 5 -3 73 c-2 63 -5 73
-20 70 -13 -2 -19 -19 -26 -63 -12 -88 -10 -85 -65 -85 -27 0 -53 -4 -56 -10
-4 -6 13 -10 44 -10 27 0 53 -5 57 -12 4 -6 6 -64 5 -127 -2 -132 3 -123 -101
-176 -91 -46 -139 -58 -180 -44 -39 14 -65 65 -51 102 8 20 18 25 66 30 31 3
67 13 81 22 32 21 31 53 -2 65 -70 27 -156 -10 -193 -83 -21 -43 -31 -51 -116
-93 -111 -55 -160 -61 -200 -24 -21 20 -25 32 -23 65 l3 40 65 8 c103 13 141
53 80 85 -54 28 -162 -10 -192 -68 -7 -14 -17 -28 -23 -32 -24 -18 -84 23
-111 75 -8 15 -23 27 -33 27 -16 0 -19 -11 -23 -84 -6 -97 -31 -161 -63 -161
-25 0 -55 57 -55 105 0 59 -10 81 -34 78 -16 -2 -23 -14 -32 -53 -12 -57 -30
-95 -45 -95 -15 0 -29 47 -29 100 0 61 -7 80 -31 80 -14 0 -19 -7 -19 -29 0
-27 -4 -30 -42 -36 -24 -3 -87 -15 -142 -27 -110 -24 -91 -29 -202 46 -33 21
-147 91 -254 154 -255 150 -359 222 -445 307 -86 85 -115 140 -115 219 0 144
152 313 392 437 193 99 457 179 692 210 113 14 314 7 383 -15 68 -22 132 -71
163 -126 52 -95 22 -214 -85 -337 -25 -28 -45 -54 -45 -57 0 -3 11 -6 25 -6
27 0 102 83 151 166 32 54 44 160 25 217 -27 80 -139 160 -261 186 -59 13
-233 22 -290 15z m694 -1341 c-17 -13 -74 -19 -74 -8 0 11 64 33 78 27 12 -4
11 -8 -4 -19z m401 18 c8 -13 -27 -31 -60 -31 -30 0 -25 17 9 30 28 12 44 12
51 1z m-1315 -218 c17 -21 38 -62 47 -91 16 -50 16 -55 -1 -87 -23 -42 -97
-76 -183 -83 -78 -6 -116 9 -138 54 -22 47 -7 92 50 142 48 42 151 101 177
102 9 0 30 -17 48 -37z"/>
<path d="M3531 1497 c-35 -57 -43 -147 -50 -542 l-6 -380 -50 -32 c-59 -39
-155 -73 -206 -73 -66 0 -87 56 -49 131 25 48 62 66 105 50 20 -8 32 -8 40 0
15 16 -22 39 -62 39 -96 0 -168 -98 -142 -192 13 -52 41 -68 114 -68 72 0 143
30 204 85 46 42 49 40 53 -45 3 -51 5 -55 28 -55 22 0 28 9 55 85 35 95 69
165 86 175 18 12 27 -7 38 -74 6 -35 18 -75 27 -88 13 -21 21 -24 51 -20 19 3
50 18 68 32 l34 25 17 -36 c10 -20 31 -45 48 -56 65 -41 215 -1 309 82 40 35
48 36 70 12 15 -17 15 -20 -13 -44 -36 -32 -39 -70 -8 -92 29 -20 58 -20 87 0
20 15 23 23 19 65 -5 46 -3 50 26 68 51 31 58 30 63 -13 8 -74 41 -116 92
-116 42 0 67 15 134 79 74 70 79 94 7 28 -37 -33 -81 -62 -103 -69 -37 -11
-41 -10 -59 12 -18 23 -20 37 -16 182 2 111 7 161 16 170 9 9 51 14 130 16
167 4 171 16 7 22 l-140 5 -3 65 c-2 36 -8 70 -13 75 -17 16 -39 -24 -39 -71
0 -67 -6 -74 -60 -74 -27 0 -52 -4 -55 -10 -4 -6 10 -10 34 -10 71 0 71 0 71
-120 0 -119 -3 -126 -74 -155 -37 -16 -39 -15 -61 5 -30 28 -55 79 -48 97 4
10 14 12 35 7 23 -5 29 -3 26 7 -6 18 -61 23 -89 9 -16 -9 -20 -19 -17 -43 3
-18 8 -39 12 -48 6 -13 -14 -27 -96 -68 -132 -67 -163 -72 -207 -36 -28 24
-32 33 -29 69 l3 41 60 7 c98 12 138 46 95 80 -52 42 -157 7 -204 -66 -80
-127 -156 -125 -156 6 0 71 -17 93 -69 84 -40 -6 -64 -27 -95 -82 -12 -22 -26
-38 -31 -36 -12 3 -7 86 11 190 68 396 88 623 60 697 -22 57 -54 62 -85 12z
m69 -129 c0 -99 -36 -447 -50 -488 -6 -19 -9 -8 -9 45 -1 127 19 494 29 521
18 46 30 14 30 -78z m444 -715 c-17 -13 -74 -19 -74 -8 0 11 64 33 78 27 12
-4 11 -8 -4 -19z m306 -193 c0 -20 -5 -30 -15 -30 -18 0 -30 24 -21 45 10 28
36 17 36 -15z"/>
<path d="M4827 473 c-13 -13 -7 -53 8 -53 17 0 39 36 30 50 -7 11 -28 13 -38
3z"/>
</g>
</svg>
